999
Generated by Autodesk CAM - http://cam.autodesk.com
0
SECTION
2
HEADER
9
$ACADVER
1
AC1006
9
$ANGBASE
50
0
9
$ANGDIR
70
0
0
ENDSEC
0
SECTION
2
BLOCKS
0
ENDSEC
9
$EXTMIN
10
-223.226
20
-136.021
30
0
9
$EXTMAX
10
223.226
20
136.021
30
15
0
SECTION
2
ENTITIES
0
ARC
8
1
62
1
10
-154.819
20
67.613
30
0
40
40.053
50
-76.741744
51
-76.107007
0
LINE
8
1
62
1
10
-145.633
20
28.628
30
0
11
-145.633
21
10.905
31
0
0
ARC
8
1
62
1
10
-154.819
20
67.613
30
0
40
57.447
50
-80.798777
51
-11.422508
0
LINE
8
1
62
1
10
-98.51
20
56.236
30
0
11
-116.415
21
56.236
31
0
0
ARC
8
1
62
1
10
-154.819
20
67.613
30
0
40
40.053
50
-76.107007
51
-16.50198
0
ARC
8
1
62
1
10
-154.819
20
67.613
30
0
40
34.947
50
-89.458628
51
90.541372
0
ARC
8
1
62
1
10
-154.819
20
67.613
30
0
40
34.947
50
90.541372
51
-89.458628
0
ARC
8
1
62
1
10
-154.819
20
67.613
30
0
40
40.053
50
-163.498515
51
-162.85427
0
LINE
8
1
62
1
10
-193.222
20
56.236
30
0
11
-211.128
21
56.236
31
0
0
ARC
8
1
62
1
10
-154.819
20
67.613
30
0
40
57.447
50
-168.577426
51
-99.20018
0
LINE
8
1
62
1
10
-164.004
20
10.905
30
0
11
-164.004
21
28.628
31
0
0
ARC
8
1
62
1
10
-154.819
20
67.613
30
0
40
40.053
50
-162.85427
51
-103.257741
0
ARC
8
1
62
1
10
-154.819
20
67.613
30
0
40
40.053
50
103.25697
51
103.891501
0
LINE
8
1
62
1
10
-164.004
20
106.599
30
0
11
-164.004
21
124.321
31
0
0
ARC
8
1
62
1
10
-154.819
20
67.613
30
0
40
57.447
50
99.19986
51
169.921103
0
LINE
8
1
62
1
10
-211.38
20
77.666
30
0
11
-193.59
21
77.666
31
0
0
ARC
8
1
62
1
10
-154.819
20
67.613
30
0
40
40.053
50
103.891501
51
165.463713
0
LINE
8
1
62
1
10
-145.633
20
107.043
30
0
11
-145.633
21
106.599
31
0
0
ARC
8
1
62
1
10
-154.819
20
67.613
30
0
40
40.053
50
14.536021
51
76.741365
0
LINE
8
1
62
1
10
-116.048
20
77.666
30
0
11
-98.258
21
77.666
31
0
0
ARC
8
1
62
1
10
-154.819
20
67.613
30
0
40
57.447
50
10.078789
51
80.799029
0
LINE
8
1
62
1
10
-145.633
20
124.321
30
0
11
-145.633
21
107.043
31
0
0
ARC
8
1
62
1
10
-154.819
20
67.613
30
0
40
62.553
50
-86.285168
51
-36.51338
0
LINE
8
1
62
1
10
-150.766
20
5.192
30
0
11
-150.766
21
1.166
31
0
0
LINE
8
1
62
1
10
-150.766
20
1.166
30
0
11
-148.819
21
1.166
31
0
0
ARC
8
1
62
1
10
-148.819
20
1.113
30
0
40
0.053
50
-21.991975
51
90
0
LINE
8
1
62
1
10
-148.77
20
1.093
30
0
11
-149.519
21
-0.761
31
0
0
ARC
8
1
62
1
10
-149.568
20
-0.741
30
0
40
0.053
50
-90
51
-21.998094
0
LINE
8
1
62
1
10
-149.568
20
-0.794
30
0
11
-160.07
21
-0.794
31
0
0
ARC
8
1
62
1
10
-160.07
20
-0.741
30
0
40
0.053
50
-158.001906
51
-90
0
LINE
8
1
62
1
10
-160.119
20
-0.761
30
0
11
-160.868
21
1.093
31
0
0
ARC
8
1
62
1
10
-160.819
20
1.113
30
0
40
0.053
50
90
51
-158.008025
0
LINE
8
1
62
1
10
-160.819
20
1.166
30
0
11
-158.872
21
1.166
31
0
0
LINE
8
1
62
1
10
-158.872
20
1.166
30
0
11
-158.872
21
5.192
31
0
0
ARC
8
1
62
1
10
-154.819
20
67.613
30
0
40
62.553
50
-176.284951
51
-93.714877
0
LINE
8
1
62
1
10
-217.241
20
63.56
30
0
11
-221.266
21
63.56
31
0
0
LINE
8
1
62
1
10
-221.266
20
63.56
30
0
11
-221.266
21
61.613
31
0
0
ARC
8
1
62
1
10
-221.319
20
61.613
30
0
40
0.053
50
-111.997454
51
0
0
LINE
8
1
62
1
10
-221.339
20
61.564
30
0
11
-223.193
21
62.313
31
0
0
ARC
8
1
62
1
10
-223.173
20
62.362
30
0
40
0.053
50
180
51
-111.998999
0
LINE
8
1
62
1
10
-223.226
20
62.362
30
0
11
-223.226
21
72.864
31
0
0
ARC
8
1
62
1
10
-223.173
20
72.864
30
0
40
0.053
50
111.997454
51
180
0
LINE
8
1
62
1
10
-223.193
20
72.913
30
0
11
-221.339
21
73.662
31
0
0
ARC
8
1
62
1
10
-221.319
20
73.613
30
0
40
0.053
50
0
51
111.997454
0
LINE
8
1
62
1
10
-221.266
20
73.613
30
0
11
-221.266
21
71.666
31
0
0
LINE
8
1
62
1
10
-221.266
20
71.666
30
0
11
-217.241
21
71.666
31
0
0
ARC
8
1
62
1
10
-154.819
20
67.613
30
0
40
62.553
50
93.714825
51
176.284881
0
LINE
8
1
62
1
10
-158.872
20
130.035
30
0
11
-158.872
21
134.06
31
0
0
LINE
8
1
62
1
10
-158.872
20
134.06
30
0
11
-160.819
21
134.06
31
0
0
ARC
8
1
62
1
10
-160.819
20
134.113
30
0
40
0.053
50
158.02093
51
-90
0
LINE
8
1
62
1
10
-160.868
20
134.133
30
0
11
-160.119
21
135.988
31
0
0
ARC
8
1
62
1
10
-160.07
20
135.968
30
0
40
0.053
50
90
51
158.014754
0
LINE
8
1
62
1
10
-160.07
20
136.021
30
0
11
-149.568
21
136.021
31
0
0
ARC
8
1
62
1
10
-149.568
20
135.968
30
0
40
0.053
50
21.985246
51
90
0
LINE
8
1
62
1
10
-149.519
20
135.988
30
0
11
-148.77
21
134.133
31
0
0
ARC
8
1
62
1
10
-148.819
20
134.113
30
0
40
0.053
50
-90
51
21.97907
0
LINE
8
1
62
1
10
-148.819
20
134.06
30
0
11
-150.766
21
134.06
31
0
0
LINE
8
1
62
1
10
-150.766
20
134.06
30
0
11
-150.766
21
130.035
31
0
0
ARC
8
1
62
1
10
-154.819
20
67.613
30
0
40
62.553
50
3.715166
51
86.285234
0
LINE
8
1
62
1
10
-92.397
20
71.666
30
0
11
-88.372
21
71.666
31
0
0
LINE
8
1
62
1
10
-88.372
20
71.666
30
0
11
-88.372
21
73.613
31
0
0
ARC
8
1
62
1
10
-88.319
20
73.613
30
0
40
0.053
50
68.002546
51
180
0
LINE
8
1
62
1
10
-88.299
20
73.662
30
0
11
-86.445
21
72.913
31
0
0
ARC
8
1
62
1
10
-86.464
20
72.864
30
0
40
0.053
50
0
51
68.002546
0
LINE
8
1
62
1
10
-86.411
20
72.864
30
0
11
-86.411
21
62.362
31
0
0
ARC
8
1
62
1
10
-86.464
20
62.362
30
0
40
0.053
50
-68.002546
51
0
0
LINE
8
1
62
1
10
-86.445
20
62.313
30
0
11
-88.299
21
61.564
31
0
0
ARC
8
1
62
1
10
-88.319
20
61.613
30
0
40
0.053
50
180
51
-68.002546
0
LINE
8
1
62
1
10
-88.372
20
61.613
30
0
11
-88.372
21
63.56
31
0
0
LINE
8
1
62
1
10
-88.372
20
63.56
30
0
11
-92.397
21
63.56
31
0
0
ARC
8
1
62
1
10
-154.819
20
67.613
30
0
40
62.553
50
-36.51338
51
-3.715095
0
ARC
8
1
62
1
10
-102.827
20
-67.613
30
0
40
57.447
50
66.823576
51
-113.176424
0
ARC
8
1
62
1
10
-102.827
20
-67.613
30
0
40
57.447
50
-113.176424
51
66.823576
0
ARC
8
1
62
1
10
-102.827
20
-67.613
30
0
40
62.553
50
3.715041
51
61.577341
0
LINE
8
1
62
1
10
-40.405
20
-63.56
30
0
11
-36.38
21
-63.56
31
0
0
LINE
8
1
62
1
10
-36.38
20
-63.56
30
0
11
-36.38
21
-61.613
31
0
0
ARC
8
1
62
1
10
-36.327
20
-61.613
30
0
40
0.053
50
67.998722
51
180
0
LINE
8
1
62
1
10
-36.307
20
-61.564
30
0
11
-34.453
21
-62.313
31
0
0
ARC
8
1
62
1
10
-34.472
20
-62.362
30
0
40
0.053
50
0
51
68.002546
0
LINE
8
1
62
1
10
-34.419
20
-62.362
30
0
11
-34.419
21
-72.864
31
0
0
ARC
8
1
62
1
10
-34.472
20
-72.864
30
0
40
0.053
50
-68.002546
51
0
0
LINE
8
1
62
1
10
-34.453
20
-72.913
30
0
11
-36.307
21
-73.662
31
0
0
ARC
8
1
62
1
10
-36.327
20
-73.613
30
0
40
0.053
50
180
51
-67.998722
0
LINE
8
1
62
1
10
-36.38
20
-73.613
30
0
11
-36.38
21
-71.666
31
0
0
LINE
8
1
62
1
10
-36.38
20
-71.666
30
0
11
-40.405
21
-71.666
31
0
0
ARC
8
1
62
1
10
-102.827
20
-67.613
30
0
40
62.553
50
-86.285084
51
-3.715112
0
LINE
8
1
62
1
10
-98.774
20
-130.035
30
0
11
-98.774
21
-134.06
31
0
0
LINE
8
1
62
1
10
-98.774
20
-134.06
30
0
11
-96.827
21
-134.06
31
0
0
ARC
8
1
62
1
10
-96.827
20
-134.113
30
0
40
0.053
50
-21.982158
51
90
0
LINE
8
1
62
1
10
-96.778
20
-134.133
30
0
11
-97.527
21
-135.988
31
0
0
ARC
8
1
62
1
10
-97.576
20
-135.968
30
0
40
0.053
50
-90
51
-21.994365
0
LINE
8
1
62
1
10
-97.576
20
-136.021
30
0
11
-108.078
21
-136.021
31
0
0
ARC
8
1
62
1
10
-108.078
20
-135.968
30
0
40
0.053
50
-158.017842
51
-90
0
LINE
8
1
62
1
10
-108.127
20
-135.988
30
0
11
-108.876
21
-134.133
31
0
0
ARC
8
1
62
1
10
-108.827
20
-134.113
30
0
40
0.053
50
90
51
-158.017842
0
LINE
8
1
62
1
10
-108.827
20
-134.06
30
0
11
-106.88
21
-134.06
31
0
0
LINE
8
1
62
1
10
-106.88
20
-134.06
30
0
11
-106.88
21
-130.035
31
0
0
ARC
8
1
62
1
10
-102.827
20
-67.613
30
0
40
62.553
50
-176.28488
51
-93.714818
0
LINE
8
1
62
1
10
-165.249
20
-71.666
30
0
11
-169.274
21
-71.666
31
0
0
LINE
8
1
62
1
10
-169.274
20
-71.666
30
0
11
-169.274
21
-73.613
31
0
0
ARC
8
1
62
1
10
-169.327
20
-73.613
30
0
40
0.053
50
-112.012747
51
0
0
LINE
8
1
62
1
10
-169.347
20
-73.662
30
0
11
-171.201
21
-72.913
31
0
0
ARC
8
1
62
1
10
-171.181
20
-72.864
30
0
40
0.053
50
180
51
-111.997454
0
LINE
8
1
62
1
10
-171.234
20
-72.864
30
0
11
-171.234
21
-62.362
31
0
0
ARC
8
1
62
1
10
-171.181
20
-62.362
30
0
40
0.053
50
111.998999
51
180
0
LINE
8
1
62
1
10
-171.201
20
-62.313
30
0
11
-169.347
21
-61.564
31
0
0
ARC
8
1
62
1
10
-169.327
20
-61.613
30
0
40
0.053
50
0
51
112.012747
0
LINE
8
1
62
1
10
-169.274
20
-61.613
30
0
11
-169.274
21
-63.56
31
0
0
LINE
8
1
62
1
10
-169.274
20
-63.56
30
0
11
-165.249
21
-63.56
31
0
0
ARC
8
1
62
1
10
-102.827
20
-67.613
30
0
40
62.553
50
93.714884
51
176.284951
0
LINE
8
1
62
1
10
-106.88
20
-5.192
30
0
11
-106.88
21
-1.166
31
0
0
LINE
8
1
62
1
10
-106.88
20
-1.166
30
0
11
-108.827
21
-1.166
31
0
0
ARC
8
1
62
1
10
-108.827
20
-1.113
30
0
40
0.053
50
158.004936
51
-90
0
LINE
8
1
62
1
10
-108.876
20
-1.093
30
0
11
-108.127
21
0.761
31
0
0
ARC
8
1
62
1
10
-108.078
20
0.741
30
0
40
0.053
50
90
51
158.004996
0
LINE
8
1
62
1
10
-108.078
20
0.794
30
0
11
-97.576
21
0.794
31
0
0
ARC
8
1
62
1
10
-97.576
20
0.741
30
0
40
0.053
50
21.999605
51
90
0
LINE
8
1
62
1
10
-97.527
20
0.761
30
0
11
-96.778
21
-1.093
31
0
0
ARC
8
1
62
1
10
-96.827
20
-1.113
30
0
40
0.053
50
-90
51
21.999605
0
LINE
8
1
62
1
10
-96.827
20
-1.166
30
0
11
-98.774
21
-1.166
31
0
0
LINE
8
1
62
1
10
-98.774
20
-1.166
30
0
11
-98.774
21
-5.192
31
0
0
ARC
8
1
62
1
10
-102.827
20
-67.613
30
0
40
62.553
50
61.577341
51
86.285018
0
ARC
8
1
62
1
10
-56.827
20
-7.613
30
0
40
0.053
50
180
51
-162.91463
0
LINE
8
1
62
1
10
-56.88
20
-7.613
30
0
11
-56.88
21
62.362
31
0
0
LINE
8
1
62
1
10
-56.88
20
62.362
30
0
11
-56.88
21
93.562
31
0
0
ARC
8
1
62
1
10
-56.827
20
93.562
30
0
40
0.053
50
90
51
180
0
LINE
8
1
62
1
10
-56.827
20
93.615
30
0
11
-46.827
21
93.615
31
0
0
ARC
8
1
62
1
10
-46.827
20
93.562
30
0
40
0.053
50
0
51
90
0
LINE
8
1
62
1
10
-46.774
20
93.562
30
0
11
-46.774
21
89.615
31
0
0
LINE
8
1
62
1
10
-46.774
20
89.615
30
0
11
-42.88
21
89.615
31
0
0
LINE
8
1
62
1
10
-42.88
20
89.615
30
0
11
-42.88
21
93.562
31
0
0
ARC
8
1
62
1
10
-42.827
20
93.562
30
0
40
0.053
50
90
51
180
0
LINE
8
1
62
1
10
-42.827
20
93.615
30
0
11
209.173
21
93.615
31
0
0
ARC
8
1
62
1
10
209.173
20
93.562
30
0
40
0.053
50
0
51
90
0
LINE
8
1
62
1
10
209.226
20
93.562
30
0
11
209.226
21
89.615
31
0
0
LINE
8
1
62
1
10
209.226
20
89.615
30
0
11
213.12
21
89.615
31
0
0
LINE
8
1
62
1
10
213.12
20
89.615
30
0
11
213.12
21
93.562
31
0
0
ARC
8
1
62
1
10
213.173
20
93.562
30
0
40
0.053
50
90
51
180
0
LINE
8
1
62
1
10
213.173
20
93.615
30
0
11
223.173
21
93.615
31
0
0
ARC
8
1
62
1
10
223.173
20
93.562
30
0
40
0.053
50
0
51
90
0
LINE
8
1
62
1
10
223.226
20
93.562
30
0
11
223.226
21
-7.613
31
0
0
ARC
8
1
62
1
10
223.173
20
-7.613
30
0
40
0.053
50
-90
51
0
0
LINE
8
1
62
1
10
223.173
20
-7.666
30
0
11
213.173
21
-7.666
31
0
0
ARC
8
1
62
1
10
213.173
20
-7.613
30
0
40
0.053
50
180
51
-90
0
LINE
8
1
62
1
10
213.12
20
-7.613
30
0
11
213.12
21
-3.666
31
0
0
LINE
8
1
62
1
10
213.12
20
-3.666
30
0
11
209.226
21
-3.666
31
0
0
LINE
8
1
62
1
10
209.226
20
-3.666
30
0
11
209.226
21
-7.613
31
0
0
ARC
8
1
62
1
10
209.173
20
-7.613
30
0
40
0.053
50
-90
51
0
0
LINE
8
1
62
1
10
209.173
20
-7.666
30
0
11
-42.827
21
-7.666
31
0
0
ARC
8
1
62
1
10
-42.827
20
-7.613
30
0
40
0.053
50
180
51
-90
0
LINE
8
1
62
1
10
-42.88
20
-7.613
30
0
11
-42.88
21
-3.666
31
0
0
LINE
8
1
62
1
10
-42.88
20
-3.666
30
0
11
-46.774
21
-3.666
31
0
0
LINE
8
1
62
1
10
-46.774
20
-3.666
30
0
11
-46.774
21
-7.613
31
0
0
ARC
8
1
62
1
10
-46.827
20
-7.613
30
0
40
0.053
50
-90
51
0
0
LINE
8
1
62
1
10
-46.827
20
-7.666
30
0
11
-56.827
21
-7.666
31
0
0
ARC
8
1
62
1
10
-56.827
20
-7.613
30
0
40
0.053
50
-162.91463
51
-90
0
ENDSEC
0
EOF
