0
SECTION
2
HEADER
9
$INSUNITS
70
4
9
$ACADVER
1
AC1014
9
$HANDSEED
5
FFFF
0
ENDSEC
0
SECTION
2
TABLES
0
TABLE
2
VPORT
5
8
100
AcDbSymbolTable
0
ENDTAB
0
TABLE
2
LTYPE
5
5
100
AcDbSymbolTable
0
LTYPE
5
14
100
AcDbSymbolTableRecord
100
AcDbLinetypeTableRecord
2
BYBLOCK
70
0
0
LTYPE
5
15
100
AcDbSymbolTableRecord
100
AcDbLinetypeTableRecord
2
BYLAYER
70
0
0
ENDTAB
0
TABLE
2
LAYER
5
2
100
AcDbSymbolTable
70
2
0
LAYER
5
50
100
AcDbSymbolTableRecord
100
AcDbLayerTableRecord
2
0
70
0
6
CONTINUOUS
0
ENDTAB
0
TABLE
2
STYLE
5
3
100
AcDbSymbolTable
70
1
0
STYLE
5
11
100
AcDbSymbolTableRecord
100
AcDbTextStyleTableRecord
2
STANDARD
70
0
0
ENDTAB
0
TABLE
2
VIEW
5
6
100
AcDbSymbolTable
70
0
0
ENDTAB
0
TABLE
2
UCS
5
7
100
AcDbSymbolTable
70
0
0
ENDTAB
0
TABLE
2
APPID
5
9
100
AcDbSymbolTable
70
2
0
APPID
5
12
100
AcDbSymbolTableRecord
100
AcDbRegAppTableRecord
2
ACAD
70
0
0
ENDTAB
0
TABLE
2
DIMSTYLE
5
A
100
AcDbSymbolTable
70
1
0
ENDTAB
0
TABLE
2
BLOCK_RECORD
5
1
100
AcDbSymbolTable
70
1
0
BLOCK_RECORD
5
1F
100
AcDbSymbolTableRecord
100
AcDbBlockTableRecord
2
*MODEL_SPACE
0
BLOCK_RECORD
5
1B
100
AcDbSymbolTableRecord
100
AcDbBlockTableRecord
2
*PAPER_SPACE
0
ENDTAB
0
ENDSEC
0
SECTION
2
BLOCKS
0
BLOCK
5
20
100
AcDbEntity
100
AcDbBlockBegin
2
*MODEL_SPACE
0
ENDBLK
5
21
100
AcDbEntity
100
AcDbBlockEnd
0
BLOCK
5
1C
100
AcDbEntity
100
AcDbBlockBegin
2
*PAPER_SPACE
0
ENDBLK
5
1D
100
AcDbEntity
100
AcDbBlockEnd
0
ENDSEC
0
SECTION
2
ENTITIES
0
LINE
5
100
100
AcDbEntity
8
0
100
AcDbLine
10
4.243476252020459
20
-266
30
0
11
4.243476252020459
21
-129.00000000000003
31
0
0
LINE
5
101
100
AcDbEntity
8
0
100
AcDbLine
10
4.243476252020459
20
-123.00000000000003
30
0
11
4.243476252020459
21
13.999999999999968
31
0
0
LINE
5
102
100
AcDbEntity
8
0
100
AcDbLine
10
4.243476252020459
20
14
30
0
11
5.7434762520204599
21
14
31
0
0
LINE
5
103
100
AcDbEntity
8
0
100
AcDbLine
10
5.7434762520204599
20
14
30
0
11
5.7434762520204599
21
-75.333333333333329
31
0
0
LINE
5
104
100
AcDbEntity
8
0
100
AcDbLine
10
5.7434762520204599
20
-81.333333333333329
30
0
11
5.7434762520204599
21
-170.66666666666666
31
0
0
LINE
5
105
100
AcDbEntity
8
0
100
AcDbLine
10
5.7434762520204599
20
-176.66666666666669
30
0
11
5.7434762520204599
21
-266
31
0
0
LINE
5
106
100
AcDbEntity
8
0
100
AcDbLine
10
96.931775064735263
20
-123
30
0
11
96.931775064735263
21
13.999999999999986
31
0
0
LINE
5
107
100
AcDbEntity
8
0
100
AcDbLine
10
96.931775064735263
20
-266
30
0
11
96.931775064735263
21
-129
31
0
0
LINE
5
108
100
AcDbEntity
8
0
100
AcDbLine
10
8.7434762520204607
20
-176.66666666666669
30
0
11
8.7434762520204607
21
-266
31
0
0
LINE
5
109
100
AcDbEntity
8
0
100
AcDbLine
10
7.2434762520204599
20
-266
30
0
11
7.2434762520204599
21
-129.00000000000003
31
0
0
LINE
5
110
100
AcDbEntity
8
0
100
AcDbLine
10
8.7434762520204607
20
-81.333333333333329
30
0
11
8.7434762520204607
21
-170.66666666666666
31
0
0
LINE
5
111
100
AcDbEntity
8
0
100
AcDbLine
10
7.2434762520204599
20
-123.00000000000003
30
0
11
7.2434762520204599
21
13.999999999999968
31
0
0
LINE
5
112
100
AcDbEntity
8
0
100
AcDbLine
10
8.7434762520204607
20
14
30
0
11
8.7434762520204607
21
-75.333333333333329
31
0
0
LINE
5
113
100
AcDbEntity
8
0
100
AcDbLine
10
11.743476252020461
20
-176.66666666666669
30
0
11
11.743476252020461
21
-266
31
0
0
LINE
5
114
100
AcDbEntity
8
0
100
AcDbLine
10
10.243476252020461
20
-266
30
0
11
10.243476252020461
21
-129.00000000000003
31
0
0
LINE
5
115
100
AcDbEntity
8
0
100
AcDbLine
10
11.743476252020461
20
-81.333333333333329
30
0
11
11.743476252020461
21
-170.66666666666666
31
0
0
LINE
5
116
100
AcDbEntity
8
0
100
AcDbLine
10
10.243476252020461
20
-123.00000000000003
30
0
11
10.243476252020461
21
13.999999999999968
31
0
0
LINE
5
117
100
AcDbEntity
8
0
100
AcDbLine
10
11.743476252020461
20
14
30
0
11
11.743476252020461
21
-75.333333333333329
31
0
0
LINE
5
118
100
AcDbEntity
8
0
100
AcDbLine
10
14.743476252020461
20
-176.66666666666669
30
0
11
14.743476252020461
21
-266
31
0
0
LINE
5
119
100
AcDbEntity
8
0
100
AcDbLine
10
13.243476252020461
20
-266
30
0
11
13.243476252020461
21
-129.00000000000003
31
0
0
LINE
5
120
100
AcDbEntity
8
0
100
AcDbLine
10
14.743476252020461
20
-81.333333333333329
30
0
11
14.743476252020461
21
-170.66666666666666
31
0
0
LINE
5
121
100
AcDbEntity
8
0
100
AcDbLine
10
13.243476252020461
20
-123.00000000000003
30
0
11
13.243476252020461
21
13.999999999999968
31
0
0
LINE
5
122
100
AcDbEntity
8
0
100
AcDbLine
10
14.743476252020461
20
14
30
0
11
14.743476252020461
21
-75.333333333333329
31
0
0
LINE
5
123
100
AcDbEntity
8
0
100
AcDbLine
10
17.743476252020464
20
-176.66666666666669
30
0
11
17.743476252020464
21
-266
31
0
0
LINE
5
124
100
AcDbEntity
8
0
100
AcDbLine
10
16.243476252020461
20
-266
30
0
11
16.243476252020461
21
-129.00000000000003
31
0
0
LINE
5
125
100
AcDbEntity
8
0
100
AcDbLine
10
17.743476252020464
20
-81.333333333333329
30
0
11
17.743476252020464
21
-170.66666666666666
31
0
0
LINE
5
126
100
AcDbEntity
8
0
100
AcDbLine
10
16.243476252020461
20
-123.00000000000003
30
0
11
16.243476252020461
21
13.999999999999968
31
0
0
LINE
5
127
100
AcDbEntity
8
0
100
AcDbLine
10
17.743476252020464
20
14
30
0
11
17.743476252020464
21
-75.333333333333329
31
0
0
LINE
5
128
100
AcDbEntity
8
0
100
AcDbLine
10
20.743476252020461
20
-176.66666666666669
30
0
11
20.743476252020461
21
-266
31
0
0
LINE
5
129
100
AcDbEntity
8
0
100
AcDbLine
10
19.243476252020461
20
-266
30
0
11
19.243476252020461
21
-129.00000000000003
31
0
0
LINE
5
130
100
AcDbEntity
8
0
100
AcDbLine
10
20.743476252020461
20
-81.333333333333329
30
0
11
20.743476252020461
21
-170.66666666666666
31
0
0
LINE
5
131
100
AcDbEntity
8
0
100
AcDbLine
10
19.243476252020461
20
-123.00000000000003
30
0
11
19.243476252020461
21
13.999999999999968
31
0
0
LINE
5
132
100
AcDbEntity
8
0
100
AcDbLine
10
20.743476252020461
20
14
30
0
11
20.743476252020461
21
-75.333333333333329
31
0
0
LINE
5
133
100
AcDbEntity
8
0
100
AcDbLine
10
23.743476252020464
20
-176.66666666666669
30
0
11
23.743476252020464
21
-266
31
0
0
LINE
5
134
100
AcDbEntity
8
0
100
AcDbLine
10
22.243476252020464
20
-266
30
0
11
22.243476252020464
21
-129.00000000000003
31
0
0
LINE
5
135
100
AcDbEntity
8
0
100
AcDbLine
10
23.743476252020464
20
-81.333333333333329
30
0
11
23.743476252020464
21
-170.66666666666666
31
0
0
LINE
5
136
100
AcDbEntity
8
0
100
AcDbLine
10
22.243476252020464
20
-123.00000000000003
30
0
11
22.243476252020464
21
13.999999999999968
31
0
0
LINE
5
137
100
AcDbEntity
8
0
100
AcDbLine
10
23.743476252020464
20
14
30
0
11
23.743476252020464
21
-75.333333333333329
31
0
0
LINE
5
138
100
AcDbEntity
8
0
100
AcDbLine
10
26.743476252020464
20
-176.66666666666669
30
0
11
26.743476252020464
21
-266
31
0
0
LINE
5
139
100
AcDbEntity
8
0
100
AcDbLine
10
25.243476252020464
20
-266
30
0
11
25.243476252020464
21
-129.00000000000003
31
0
0
LINE
5
140
100
AcDbEntity
8
0
100
AcDbLine
10
26.743476252020464
20
-81.333333333333329
30
0
11
26.743476252020464
21
-170.66666666666666
31
0
0
LINE
5
141
100
AcDbEntity
8
0
100
AcDbLine
10
25.243476252020464
20
-123.00000000000003
30
0
11
25.243476252020464
21
13.999999999999968
31
0
0
LINE
5
142
100
AcDbEntity
8
0
100
AcDbLine
10
26.743476252020464
20
14
30
0
11
26.743476252020464
21
-75.333333333333329
31
0
0
LINE
5
143
100
AcDbEntity
8
0
100
AcDbLine
10
29.743476252020464
20
-176.66666666666669
30
0
11
29.743476252020464
21
-266
31
0
0
LINE
5
144
100
AcDbEntity
8
0
100
AcDbLine
10
28.243476252020461
20
-266
30
0
11
28.243476252020461
21
-129.00000000000003
31
0
0
LINE
5
145
100
AcDbEntity
8
0
100
AcDbLine
10
29.743476252020464
20
-81.333333333333329
30
0
11
29.743476252020464
21
-170.66666666666666
31
0
0
LINE
5
146
100
AcDbEntity
8
0
100
AcDbLine
10
28.243476252020461
20
-123.00000000000003
30
0
11
28.243476252020461
21
13.999999999999968
31
0
0
LINE
5
147
100
AcDbEntity
8
0
100
AcDbLine
10
29.743476252020464
20
14
30
0
11
29.743476252020464
21
-75.333333333333329
31
0
0
LINE
5
148
100
AcDbEntity
8
0
100
AcDbLine
10
32.743476252020464
20
-176.66666666666669
30
0
11
32.743476252020464
21
-266
31
0
0
LINE
5
149
100
AcDbEntity
8
0
100
AcDbLine
10
31.243476252020457
20
-266
30
0
11
31.243476252020457
21
-129.00000000000003
31
0
0
LINE
5
150
100
AcDbEntity
8
0
100
AcDbLine
10
32.743476252020464
20
-81.333333333333329
30
0
11
32.743476252020464
21
-170.66666666666666
31
0
0
LINE
5
151
100
AcDbEntity
8
0
100
AcDbLine
10
31.243476252020457
20
-123.00000000000003
30
0
11
31.243476252020457
21
13.999999999999968
31
0
0
LINE
5
152
100
AcDbEntity
8
0
100
AcDbLine
10
32.743476252020464
20
14
30
0
11
32.743476252020464
21
-75.333333333333329
31
0
0
LINE
5
153
100
AcDbEntity
8
0
100
AcDbLine
10
35.743476252020464
20
-176.66666666666669
30
0
11
35.743476252020464
21
-266
31
0
0
LINE
5
154
100
AcDbEntity
8
0
100
AcDbLine
10
34.243476252020464
20
-266
30
0
11
34.243476252020464
21
-129.00000000000003
31
0
0
LINE
5
155
100
AcDbEntity
8
0
100
AcDbLine
10
35.743476252020464
20
-81.333333333333329
30
0
11
35.743476252020464
21
-170.66666666666666
31
0
0
LINE
5
156
100
AcDbEntity
8
0
100
AcDbLine
10
34.243476252020464
20
-123.00000000000003
30
0
11
34.243476252020464
21
13.999999999999968
31
0
0
LINE
5
157
100
AcDbEntity
8
0
100
AcDbLine
10
35.743476252020464
20
14
30
0
11
35.743476252020464
21
-75.333333333333329
31
0
0
LINE
5
158
100
AcDbEntity
8
0
100
AcDbLine
10
38.743476252020471
20
-176.66666666666669
30
0
11
38.743476252020471
21
-266
31
0
0
LINE
5
159
100
AcDbEntity
8
0
100
AcDbLine
10
37.243476252020464
20
-266
30
0
11
37.243476252020464
21
-129.00000000000003
31
0
0
LINE
5
160
100
AcDbEntity
8
0
100
AcDbLine
10
38.743476252020471
20
-81.333333333333329
30
0
11
38.743476252020471
21
-170.66666666666666
31
0
0
LINE
5
161
100
AcDbEntity
8
0
100
AcDbLine
10
37.243476252020464
20
-123.00000000000003
30
0
11
37.243476252020464
21
13.999999999999968
31
0
0
LINE
5
162
100
AcDbEntity
8
0
100
AcDbLine
10
38.743476252020471
20
14
30
0
11
38.743476252020471
21
-75.333333333333329
31
0
0
LINE
5
163
100
AcDbEntity
8
0
100
AcDbLine
10
41.743476252020464
20
-176.66666666666669
30
0
11
41.743476252020464
21
-266
31
0
0
LINE
5
164
100
AcDbEntity
8
0
100
AcDbLine
10
40.243476252020464
20
-266
30
0
11
40.243476252020464
21
-129.00000000000003
31
0
0
LINE
5
165
100
AcDbEntity
8
0
100
AcDbLine
10
41.743476252020464
20
-81.333333333333329
30
0
11
41.743476252020464
21
-170.66666666666666
31
0
0
LINE
5
166
100
AcDbEntity
8
0
100
AcDbLine
10
40.243476252020464
20
-123.00000000000003
30
0
11
40.243476252020464
21
13.999999999999968
31
0
0
LINE
5
167
100
AcDbEntity
8
0
100
AcDbLine
10
41.743476252020464
20
14
30
0
11
41.743476252020464
21
-75.333333333333329
31
0
0
LINE
5
168
100
AcDbEntity
8
0
100
AcDbLine
10
44.743476252020464
20
-176.66666666666669
30
0
11
44.743476252020464
21
-266
31
0
0
LINE
5
169
100
AcDbEntity
8
0
100
AcDbLine
10
43.243476252020457
20
-266
30
0
11
43.243476252020457
21
-129.00000000000003
31
0
0
LINE
5
170
100
AcDbEntity
8
0
100
AcDbLine
10
44.743476252020464
20
-81.333333333333329
30
0
11
44.743476252020464
21
-170.66666666666666
31
0
0
LINE
5
171
100
AcDbEntity
8
0
100
AcDbLine
10
43.243476252020457
20
-123.00000000000003
30
0
11
43.243476252020457
21
13.999999999999968
31
0
0
LINE
5
172
100
AcDbEntity
8
0
100
AcDbLine
10
44.743476252020464
20
14
30
0
11
44.743476252020464
21
-75.333333333333329
31
0
0
LINE
5
173
100
AcDbEntity
8
0
100
AcDbLine
10
47.743476252020471
20
-176.66666666666669
30
0
11
47.743476252020471
21
-266
31
0
0
LINE
5
174
100
AcDbEntity
8
0
100
AcDbLine
10
46.243476252020471
20
-266
30
0
11
46.243476252020471
21
-129.00000000000003
31
0
0
LINE
5
175
100
AcDbEntity
8
0
100
AcDbLine
10
47.743476252020471
20
-81.333333333333329
30
0
11
47.743476252020471
21
-170.66666666666666
31
0
0
LINE
5
176
100
AcDbEntity
8
0
100
AcDbLine
10
46.243476252020471
20
-123.00000000000003
30
0
11
46.243476252020471
21
13.999999999999968
31
0
0
LINE
5
177
100
AcDbEntity
8
0
100
AcDbLine
10
47.743476252020471
20
14
30
0
11
47.743476252020471
21
-75.333333333333329
31
0
0
LINE
5
178
100
AcDbEntity
8
0
100
AcDbLine
10
50.743476252020471
20
-176.66666666666669
30
0
11
50.743476252020471
21
-266
31
0
0
LINE
5
179
100
AcDbEntity
8
0
100
AcDbLine
10
49.243476252020464
20
-266
30
0
11
49.243476252020464
21
-129.00000000000003
31
0
0
LINE
5
180
100
AcDbEntity
8
0
100
AcDbLine
10
50.743476252020471
20
-81.333333333333329
30
0
11
50.743476252020471
21
-170.66666666666666
31
0
0
LINE
5
181
100
AcDbEntity
8
0
100
AcDbLine
10
49.243476252020464
20
-123.00000000000003
30
0
11
49.243476252020464
21
13.999999999999968
31
0
0
LINE
5
182
100
AcDbEntity
8
0
100
AcDbLine
10
50.743476252020471
20
14
30
0
11
50.743476252020471
21
-75.333333333333329
31
0
0
LINE
5
183
100
AcDbEntity
8
0
100
AcDbLine
10
53.743476252020471
20
-176.66666666666669
30
0
11
53.743476252020471
21
-266
31
0
0
LINE
5
184
100
AcDbEntity
8
0
100
AcDbLine
10
52.243476252020464
20
-266
30
0
11
52.243476252020464
21
-129.00000000000003
31
0
0
LINE
5
185
100
AcDbEntity
8
0
100
AcDbLine
10
53.743476252020471
20
-81.333333333333329
30
0
11
53.743476252020471
21
-170.66666666666666
31
0
0
LINE
5
186
100
AcDbEntity
8
0
100
AcDbLine
10
52.243476252020464
20
-123.00000000000003
30
0
11
52.243476252020464
21
13.999999999999968
31
0
0
LINE
5
187
100
AcDbEntity
8
0
100
AcDbLine
10
53.743476252020471
20
14
30
0
11
53.743476252020471
21
-75.333333333333329
31
0
0
LINE
5
188
100
AcDbEntity
8
0
100
AcDbLine
10
56.743476252020464
20
-176.66666666666669
30
0
11
56.743476252020464
21
-266
31
0
0
LINE
5
189
100
AcDbEntity
8
0
100
AcDbLine
10
55.243476252020464
20
-266
30
0
11
55.243476252020464
21
-129.00000000000003
31
0
0
LINE
5
190
100
AcDbEntity
8
0
100
AcDbLine
10
56.743476252020464
20
-81.333333333333329
30
0
11
56.743476252020464
21
-170.66666666666666
31
0
0
LINE
5
191
100
AcDbEntity
8
0
100
AcDbLine
10
55.243476252020464
20
-123.00000000000003
30
0
11
55.243476252020464
21
13.999999999999968
31
0
0
LINE
5
192
100
AcDbEntity
8
0
100
AcDbLine
10
56.743476252020464
20
14
30
0
11
56.743476252020464
21
-75.333333333333329
31
0
0
LINE
5
193
100
AcDbEntity
8
0
100
AcDbLine
10
59.743476252020464
20
-176.66666666666669
30
0
11
59.743476252020464
21
-266
31
0
0
LINE
5
194
100
AcDbEntity
8
0
100
AcDbLine
10
58.243476252020457
20
-266
30
0
11
58.243476252020457
21
-129.00000000000003
31
0
0
LINE
5
195
100
AcDbEntity
8
0
100
AcDbLine
10
59.743476252020464
20
-81.333333333333329
30
0
11
59.743476252020464
21
-170.66666666666666
31
0
0
LINE
5
196
100
AcDbEntity
8
0
100
AcDbLine
10
58.243476252020457
20
-123.00000000000003
30
0
11
58.243476252020457
21
13.999999999999968
31
0
0
LINE
5
197
100
AcDbEntity
8
0
100
AcDbLine
10
59.743476252020464
20
14
30
0
11
59.743476252020464
21
-75.333333333333329
31
0
0
LINE
5
198
100
AcDbEntity
8
0
100
AcDbLine
10
62.743476252020471
20
-176.66666666666669
30
0
11
62.743476252020471
21
-266
31
0
0
LINE
5
199
100
AcDbEntity
8
0
100
AcDbLine
10
61.243476252020471
20
-266
30
0
11
61.243476252020471
21
-129.00000000000003
31
0
0
LINE
5
200
100
AcDbEntity
8
0
100
AcDbLine
10
62.743476252020471
20
-81.333333333333329
30
0
11
62.743476252020471
21
-170.66666666666666
31
0
0
LINE
5
201
100
AcDbEntity
8
0
100
AcDbLine
10
61.243476252020471
20
-123.00000000000003
30
0
11
61.243476252020471
21
13.999999999999968
31
0
0
LINE
5
202
100
AcDbEntity
8
0
100
AcDbLine
10
62.743476252020471
20
14
30
0
11
62.743476252020471
21
-75.333333333333329
31
0
0
LINE
5
203
100
AcDbEntity
8
0
100
AcDbLine
10
65.743476252020471
20
-176.66666666666669
30
0
11
65.743476252020471
21
-266
31
0
0
LINE
5
204
100
AcDbEntity
8
0
100
AcDbLine
10
64.243476252020471
20
-266
30
0
11
64.243476252020471
21
-129.00000000000003
31
0
0
LINE
5
205
100
AcDbEntity
8
0
100
AcDbLine
10
65.743476252020471
20
-81.333333333333329
30
0
11
65.743476252020471
21
-170.66666666666666
31
0
0
LINE
5
206
100
AcDbEntity
8
0
100
AcDbLine
10
64.243476252020471
20
-123.00000000000003
30
0
11
64.243476252020471
21
13.999999999999968
31
0
0
LINE
5
207
100
AcDbEntity
8
0
100
AcDbLine
10
65.743476252020471
20
14
30
0
11
65.743476252020471
21
-75.333333333333329
31
0
0
LINE
5
208
100
AcDbEntity
8
0
100
AcDbLine
10
68.743476252020471
20
-176.66666666666669
30
0
11
68.743476252020471
21
-266
31
0
0
LINE
5
209
100
AcDbEntity
8
0
100
AcDbLine
10
67.243476252020457
20
-266
30
0
11
67.243476252020457
21
-129.00000000000003
31
0
0
LINE
5
210
100
AcDbEntity
8
0
100
AcDbLine
10
68.743476252020471
20
-81.333333333333329
30
0
11
68.743476252020471
21
-170.66666666666666
31
0
0
LINE
5
211
100
AcDbEntity
8
0
100
AcDbLine
10
67.243476252020457
20
-123.00000000000003
30
0
11
67.243476252020457
21
13.999999999999968
31
0
0
LINE
5
212
100
AcDbEntity
8
0
100
AcDbLine
10
68.743476252020471
20
14
30
0
11
68.743476252020471
21
-75.333333333333329
31
0
0
LINE
5
213
100
AcDbEntity
8
0
100
AcDbLine
10
71.743476252020471
20
-176.66666666666669
30
0
11
71.743476252020471
21
-266
31
0
0
LINE
5
214
100
AcDbEntity
8
0
100
AcDbLine
10
70.243476252020471
20
-266
30
0
11
70.243476252020471
21
-129.00000000000003
31
0
0
LINE
5
215
100
AcDbEntity
8
0
100
AcDbLine
10
71.743476252020471
20
-81.333333333333329
30
0
11
71.743476252020471
21
-170.66666666666666
31
0
0
LINE
5
216
100
AcDbEntity
8
0
100
AcDbLine
10
70.243476252020471
20
-123.00000000000003
30
0
11
70.243476252020471
21
13.999999999999968
31
0
0
LINE
5
217
100
AcDbEntity
8
0
100
AcDbLine
10
71.743476252020471
20
14
30
0
11
71.743476252020471
21
-75.333333333333329
31
0
0
LINE
5
218
100
AcDbEntity
8
0
100
AcDbLine
10
74.743476252020471
20
-176.66666666666669
30
0
11
74.743476252020471
21
-266
31
0
0
LINE
5
219
100
AcDbEntity
8
0
100
AcDbLine
10
73.243476252020471
20
-266
30
0
11
73.243476252020471
21
-129.00000000000003
31
0
0
LINE
5
220
100
AcDbEntity
8
0
100
AcDbLine
10
74.743476252020471
20
-81.333333333333329
30
0
11
74.743476252020471
21
-170.66666666666666
31
0
0
LINE
5
221
100
AcDbEntity
8
0
100
AcDbLine
10
73.243476252020471
20
-123.00000000000003
30
0
11
73.243476252020471
21
13.999999999999968
31
0
0
LINE
5
222
100
AcDbEntity
8
0
100
AcDbLine
10
74.743476252020471
20
14
30
0
11
74.743476252020471
21
-75.333333333333329
31
0
0
LINE
5
223
100
AcDbEntity
8
0
100
AcDbLine
10
77.743476252020471
20
-176.66666666666669
30
0
11
77.743476252020471
21
-266
31
0
0
LINE
5
224
100
AcDbEntity
8
0
100
AcDbLine
10
76.243476252020471
20
-266
30
0
11
76.243476252020471
21
-129.00000000000003
31
0
0
LINE
5
225
100
AcDbEntity
8
0
100
AcDbLine
10
77.743476252020471
20
-81.333333333333329
30
0
11
77.743476252020471
21
-170.66666666666666
31
0
0
LINE
5
226
100
AcDbEntity
8
0
100
AcDbLine
10
76.243476252020471
20
-123.00000000000003
30
0
11
76.243476252020471
21
13.999999999999968
31
0
0
LINE
5
227
100
AcDbEntity
8
0
100
AcDbLine
10
77.743476252020471
20
14
30
0
11
77.743476252020471
21
-75.333333333333329
31
0
0
LINE
5
228
100
AcDbEntity
8
0
100
AcDbLine
10
80.743476252020457
20
-176.66666666666669
30
0
11
80.743476252020457
21
-266
31
0
0
LINE
5
229
100
AcDbEntity
8
0
100
AcDbLine
10
79.243476252020471
20
-266
30
0
11
79.243476252020471
21
-129.00000000000003
31
0
0
LINE
5
230
100
AcDbEntity
8
0
100
AcDbLine
10
80.743476252020457
20
-81.333333333333329
30
0
11
80.743476252020457
21
-170.66666666666666
31
0
0
LINE
5
231
100
AcDbEntity
8
0
100
AcDbLine
10
79.243476252020471
20
-123.00000000000003
30
0
11
79.243476252020471
21
13.999999999999968
31
0
0
LINE
5
232
100
AcDbEntity
8
0
100
AcDbLine
10
80.743476252020457
20
14
30
0
11
80.743476252020457
21
-75.333333333333329
31
0
0
LINE
5
233
100
AcDbEntity
8
0
100
AcDbLine
10
83.743476252020471
20
-176.66666666666669
30
0
11
83.743476252020471
21
-266
31
0
0
LINE
5
234
100
AcDbEntity
8
0
100
AcDbLine
10
82.243476252020457
20
-266
30
0
11
82.243476252020457
21
-129.00000000000003
31
0
0
LINE
5
235
100
AcDbEntity
8
0
100
AcDbLine
10
83.743476252020471
20
-81.333333333333329
30
0
11
83.743476252020471
21
-170.66666666666666
31
0
0
LINE
5
236
100
AcDbEntity
8
0
100
AcDbLine
10
82.243476252020457
20
-123.00000000000003
30
0
11
82.243476252020457
21
13.999999999999968
31
0
0
LINE
5
237
100
AcDbEntity
8
0
100
AcDbLine
10
83.743476252020471
20
14
30
0
11
83.743476252020471
21
-75.333333333333329
31
0
0
LINE
5
238
100
AcDbEntity
8
0
100
AcDbLine
10
86.743476252020471
20
-176.66666666666669
30
0
11
86.743476252020471
21
-266
31
0
0
LINE
5
239
100
AcDbEntity
8
0
100
AcDbLine
10
85.243476252020471
20
-266
30
0
11
85.243476252020471
21
-129.00000000000003
31
0
0
LINE
5
240
100
AcDbEntity
8
0
100
AcDbLine
10
86.743476252020471
20
-81.333333333333329
30
0
11
86.743476252020471
21
-170.66666666666666
31
0
0
LINE
5
241
100
AcDbEntity
8
0
100
AcDbLine
10
85.243476252020471
20
-123.00000000000003
30
0
11
85.243476252020471
21
13.999999999999968
31
0
0
LINE
5
242
100
AcDbEntity
8
0
100
AcDbLine
10
86.743476252020471
20
14
30
0
11
86.743476252020471
21
-75.333333333333329
31
0
0
LINE
5
243
100
AcDbEntity
8
0
100
AcDbLine
10
89.743476252020486
20
-176.66666666666669
30
0
11
89.743476252020486
21
-266
31
0
0
LINE
5
244
100
AcDbEntity
8
0
100
AcDbLine
10
88.243476252020486
20
-266
30
0
11
88.243476252020486
21
-129.00000000000003
31
0
0
LINE
5
245
100
AcDbEntity
8
0
100
AcDbLine
10
89.743476252020486
20
-81.333333333333329
30
0
11
89.743476252020486
21
-170.66666666666666
31
0
0
LINE
5
246
100
AcDbEntity
8
0
100
AcDbLine
10
88.243476252020486
20
-123.00000000000003
30
0
11
88.243476252020486
21
13.999999999999968
31
0
0
LINE
5
247
100
AcDbEntity
8
0
100
AcDbLine
10
89.743476252020486
20
14
30
0
11
89.743476252020486
21
-75.333333333333329
31
0
0
LINE
5
248
100
AcDbEntity
8
0
100
AcDbLine
10
92.743476252020471
20
-176.66666666666669
30
0
11
92.743476252020471
21
-266
31
0
0
LINE
5
249
100
AcDbEntity
8
0
100
AcDbLine
10
91.243476252020471
20
-266
30
0
11
91.243476252020471
21
-129.00000000000003
31
0
0
LINE
5
250
100
AcDbEntity
8
0
100
AcDbLine
10
92.743476252020471
20
-81.333333333333329
30
0
11
92.743476252020471
21
-170.66666666666666
31
0
0
LINE
5
251
100
AcDbEntity
8
0
100
AcDbLine
10
91.243476252020471
20
-123.00000000000003
30
0
11
91.243476252020471
21
13.999999999999968
31
0
0
LINE
5
252
100
AcDbEntity
8
0
100
AcDbLine
10
92.743476252020471
20
14
30
0
11
92.743476252020471
21
-75.333333333333329
31
0
0
LINE
5
253
100
AcDbEntity
8
0
100
AcDbLine
10
95.743476252020486
20
-176.66666666666669
30
0
11
95.743476252020486
21
-266
31
0
0
LINE
5
254
100
AcDbEntity
8
0
100
AcDbLine
10
94.243476252020471
20
-266
30
0
11
94.243476252020471
21
-129.00000000000003
31
0
0
LINE
5
255
100
AcDbEntity
8
0
100
AcDbLine
10
95.743476252020486
20
-81.333333333333329
30
0
11
95.743476252020486
21
-170.66666666666666
31
0
0
LINE
5
256
100
AcDbEntity
8
0
100
AcDbLine
10
94.243476252020471
20
-123.00000000000003
30
0
11
94.243476252020471
21
13.999999999999968
31
0
0
LINE
5
257
100
AcDbEntity
8
0
100
AcDbLine
10
95.743476252020486
20
14
30
0
11
95.743476252020486
21
-75.333333333333329
31
0
0
ENDSEC
0
SECTION
2
OBJECTS
0
DICTIONARY
5
C
100
AcDbDictionary
3
ACAD_GROUP
350
D
3
ACAD_MLINESTYLE
350
17
0
DICTIONARY
5
D
100
AcDbDictionary
0
DICTIONARY
5
1A
330
C
100
AcDbDictionary
0
DICTIONARY
5
17
100
AcDbDictionary
0
ENDSEC
0
EOF
